# xmcd
#
# Track frame offsets:
#	150
#	18590
#	38467
#	56577
#	77575
#	98285
#	119770
#	136515
#	156707
#	174147
#	193305
#	214152
#	230177
#
# Disc length: 3318 seconds
#
# Revision: 1
# Processed by: cddbd v1.5.2PL0 Copyright (c) Steve Scherf et al.
# Submitted via: EasyCDDAExtractor 15.3.0.1
#
DISCID=aa0cf40d
DTITLE=Gloria Estefan - Into The Light
DYEAR=1991
DGENRE=Pop
TTITLE0=Coming Out Of The Dark
TTITLE1=Seal Our Fate
TTITLE2=What Goes Around
TTITLE3=Nayib's Song (I Am Here For You)
TTITLE4=Remember Me With Love
TTITLE5=Heart With Your Name On It
TTITLE6=Sex In The 90's
TTITLE7=Close My Eyes
TTITLE8=Light Of Love
TTITLE9=Can't Forget You
TTITLE10=Live For Loving You
TTITLE11=Mama Yo Can't Go
TTITLE12=Desde La Oscuridad (Coming Out Of The Dark) (Spanish Version)
EXTD=
EXTT0=
EXTT1=
EXTT2=
EXTT3=
EXTT4=
EXTT5=
EXTT6=
EXTT7=
EXTT8=
EXTT9=
EXTT10=
EXTT11=
EXTT12=
PLAYORDER=
